<?xml version="1.0" encoding="UTF-8" standalone="no"?>
<svg
   width="400"
   height="400"
   viewBox="0 0 400 400"
   fill="none"
   version="1.1"
   id="svg9"
   sodipodi:docname="03-06-01-riscv-hero.svg"
   inkscape:version="1.3 (0e150ed, 2023-07-21)"
   xmlns:inkscape="http://www.inkscape.org/namespaces/inkscape"
   xmlns:sodipodi="http://sodipodi.sourceforge.net/DTD/sodipodi-0.dtd"
   xmlns="http://www.w3.org/2000/svg"
   xmlns:svg="http://www.w3.org/2000/svg">
  <defs
     id="defs9" />
  <sodipodi:namedview
     id="namedview9"
     pagecolor="#ffffff"
     bordercolor="#000000"
     borderopacity="0.25"
     inkscape:showpageshadow="2"
     inkscape:pageopacity="0.0"
     inkscape:pagecheckerboard="0"
     inkscape:deskcolor="#d1d1d1"
     inkscape:zoom="2.5663158"
     inkscape:cx="199.89746"
     inkscape:cy="237.5"
     inkscape:window-width="2560"
     inkscape:window-height="1376"
     inkscape:window-x="1080"
     inkscape:window-y="27"
     inkscape:window-maximized="1"
     inkscape:current-layer="svg9" />
  <path
     d="m 199.54,105.29008 c 0,31.53 -19.64,61.16 -57.59,67.7 l 53.47,62.9 5.35,-7.14 96.26,-136.000004 v -57.54 H 141.35 c 38.55,6.55 58.19,37.96 58.19,70.080004 z"
     fill="#e4b21b"
     id="path1" />
  <path
     d="m 226.9,247.24008 70.08,-98.64 v 107 h -75.43 z m -136.71,-103.28 h 37.36 c 26.77,0 40.34,-19.63 40.34,-38.55 0,-18.920004 -13.09,-38.520004 -40.34,-38.520004 h -51 V 255.09008 h 93.28 l -80.23,-96.38 v -14.82 h 0.59 z"
     fill="#2e3168"
     id="path2" />
  <path
     d="M 100.3,279.36008 H 88.42 v 55.21 h 11.89 z"
     fill="#2e3168"
     id="path3" />
  <path
     d="m 125.29,312.56008 c -2.24,-0.057 -4.447,-0.561 -6.49,-1.481 -2.043,-0.921 -3.883,-2.239 -5.41,-3.879 -3.283,-3.102 -5.206,-7.376 -5.35,-11.89 0.054,-2.24 0.555,-4.447 1.474,-6.49 0.919,-2.044 2.237,-3.883 3.876,-5.41 3.103,-3.289 7.381,-5.216 11.9,-5.36 h 62.35 v 11.9 h -62.35 c -1.264,0.126 -2.483,0.532 -3.57,1.19 -1.19,1.19 -1.19,1.79 -1.19,3.57 0,1.78 0.6,2.38 1.19,3.57 1.19,1.19 1.78,1.19 3.57,1.19 h 45.13 c 2.24,0.054 4.446,0.555 6.49,1.474 2.043,0.919 3.883,2.236 5.41,3.876 3.289,3.102 5.216,7.381 5.36,11.9 0,4.76 -1.79,8.33 -5.36,11.9 -3.105,3.284 -7.383,5.207 -11.9,5.35 h -62.38 v -11.89 h 62.38 c 1.264,-0.126 2.483,-0.533 3.57,-1.19 1.19,-1.19 1.19,-1.79 1.19,-3.57 -0.121,-1.265 -0.528,-2.486 -1.19,-3.57 -1.19,-1.19 -1.78,-1.19 -3.57,-1.19 z"
     fill="#2e3168"
     id="path4" />
  <path
     d="m 221.54,279.36008 h 51.05 v 11.9 h -51.05 c -4.121,0.109 -8.092,1.571 -11.3,4.16 -3,3 -4.16,6.55 -4.16,11.31 0.108,4.121 1.57,8.092 4.16,11.3 3,3 6.55,4.16 11.3,4.16 h 51.05 v 11.9 h -51.05 c -7.73,0 -13.68,-3 -19.63,-8.33 -2.648,-2.535 -4.753,-5.583 -6.185,-8.958 -1.432,-3.375 -2.162,-7.006 -2.145,-10.672 0,-7.73 3,-13.68 8.33,-19.63 5.36,-4.76 11.31,-7.14 19.63,-7.14 z"
     fill="#2e3168"
     id="path5" />
  <path
     d="m 79.48,333.97008 -16.06,-22.01 c 4.16,-0.59 7.73,-1.78 10.71,-5.35 3.2824,-3.106 5.2052,-7.383 5.35,-11.9 -0.0553,-2.24 -0.557,-4.446 -1.4757,-6.489 -0.9186,-2.044 -2.2358,-3.883 -3.8743,-5.411 -3.1063,-3.282 -7.3831,-5.205 -11.9,-5.35 H 0 v 55.2 h 11.9 v -22 h 36.88 l 16.07,22 z m -67.06,-43.31 h 50.4 c 1.2773,0.134 2.5079,0.554 3.6,1.23 1.19,1.19 1.19,1.79 1.19,3.57 -0.1271,1.251 -0.5338,2.457 -1.19,3.53 -1.19,1.19 -1.78,1.19 -3.57,1.19 H 12.42 Z"
     fill="#2e3168"
     id="path6" />
  <path
     d="m 332.56,334.57008 -32.14,-55.21 h 13.68 l 25.58,43.91 25.59,-43.91 h 13.68 l -32.13,55.21 z"
     fill="#e4b21b"
     id="path7" />
  <path
     d="m 303.52,301.25008 h -23.2 v 10.71 h 23.2 z"
     fill="#e4b21b"
     id="path8" />
  <path
     d="m 399.66,285.67008 c 0.004,0.844 -0.159,1.681 -0.481,2.461 -0.321,0.781 -0.794,1.491 -1.391,2.087 -0.596,0.597 -1.306,1.07 -2.086,1.391 -0.781,0.322 -1.618,0.485 -2.462,0.481 -1.719,0.013 -3.373,-0.655 -4.6,-1.858 -1.228,-1.203 -1.929,-2.843 -1.95,-4.562 0.013,-0.845 0.193,-1.68 0.53,-2.455 0.336,-0.775 0.823,-1.476 1.432,-2.063 0.609,-0.586 1.328,-1.047 2.115,-1.354 0.787,-0.308 1.628,-0.457 2.473,-0.438 0.838,-0.016 1.671,0.135 2.45,0.446 0.779,0.31 1.488,0.772 2.086,1.36 0.598,0.587 1.073,1.289 1.396,2.062 0.324,0.773 0.489,1.604 0.488,2.442 z m -11.42,0 c -0.03,0.654 0.074,1.308 0.307,1.921 0.233,0.612 0.589,1.17 1.047,1.639 0.458,0.469 1.007,0.838 1.613,1.086 0.607,0.248 1.258,0.368 1.913,0.354 0.643,-0.009 1.278,-0.146 1.867,-0.404 0.589,-0.257 1.121,-0.63 1.564,-1.095 0.444,-0.466 0.79,-1.015 1.018,-1.617 0.228,-0.601 0.334,-1.241 0.311,-1.884 0.031,-0.66 -0.072,-1.32 -0.303,-1.94 -0.231,-0.619 -0.586,-1.185 -1.042,-1.664 -0.456,-0.478 -1.004,-0.86 -1.612,-1.12 -0.608,-0.261 -1.262,-0.395 -1.923,-0.396 -2.86,0 -4.76,2.26 -4.76,5.12 z m 3.92,3.33 h -1.42 v -6.31 c 0.784,-0.155 1.581,-0.232 2.38,-0.23 0.744,-0.062 1.49,0.101 2.14,0.47 0.209,0.171 0.372,0.391 0.475,0.641 0.103,0.249 0.143,0.52 0.115,0.789 0,0.71 -0.59,1.19 -1.31,1.43 v 0.1 c 0.311,0.14 0.583,0.354 0.791,0.625 0.207,0.27 0.344,0.588 0.399,0.925 0.108,0.531 0.269,1.05 0.48,1.55 h -1.55 c -0.276,-0.473 -0.437,-1.004 -0.47,-1.55 -0.12,-0.71 -0.48,-0.95 -1.31,-0.95 h -0.72 z m 0,-3.57 h 0.72 c 0.83,0 1.43,-0.24 1.43,-0.95 0,-0.71 -0.48,-1 -1.31,-1 -0.286,-0.028 -0.574,0.013 -0.84,0.12 z"
     fill="#2e3168"
     id="path9" />
</svg>
